<?xml version="1.0" encoding="UTF-8"?><svg id="Capa_2" xmlns="http://www.w3.org/2000/svg" viewBox="0 0 1258.08 1039.53"><defs><style>.cls-1{fill:#fff;}.cls-2{fill:#00abc0;}.cls-3{fill:#00acc1;}</style></defs><g id="LOGOTIPOS"><path class="cls-2" d="M1253.31,336.26c-8.24-27.31-26.41-50.24-52.54-66.31-13.73-8.44-28.75-14.73-47.25-19.78-23.75-6.5-48.47-9.66-75.57-9.66-9.72,0-19.94,.42-30.39,1.26-.85-2.8-1.85-5.53-2.99-8.17-12.31-28.48-40.31-46.89-71.34-46.89-1.96,0-3.92,.07-5.88,.22l-64.4-139.11c-12.31-29.06-40.63-47.83-72.17-47.83-9.31,0-18.46,1.64-27.2,4.88-40.53,15-61.3,60.17-46.31,100.67,1.01,2.74,2.19,5.46,3.52,8.1l4.66,10.06c.69,1.48,.32,2.79,.04,3.43-.28,.64-.97,1.79-2.52,2.3-4.9,1.62-9.78,3.52-14.54,5.67l-1.79,.83c-15.43,7.13-29.35,16.93-41.37,29.13-3.48,3.54-8.2,5.49-13.29,5.49-.27,0-.54,0-.81-.02-.79-.03-1.58-.05-2.39-.06h-.79c-11.13,0-22.35,2.46-32.47,7.13l-.26,.12c-16.13,7.54-29.31,20.64-37.09,36.9-3.23,6.75-10.09,11.11-17.47,11.11-1.64,0-3.27-.21-4.87-.64-6.55-1.73-13.29-2.61-20.04-2.61-11.3,0-22.25,2.38-32.54,7.08l-.32,.15c-2.46,1.14-17.53,7.49-34.98,14.83-24.96,10.51-56.02,23.59-64.34,27.41l-.18,.08c-17.13,7.93-32.2,18.62-44.79,31.77-1.87,1.95-4.56,3.07-7.43,3.07-9.95,0-19.7,1.81-28.98,5.37l-2.02,.78-4.66,2.16-.77,.38c-13.36,6.59-25.53,15.14-36.16,25.43-2.74,2.65-6.43,4.11-10.37,4.11-1.31,0-2.62-.16-3.9-.49-6.17-1.56-12.52-2.35-18.93-2.35-2.31,0-4.5-.76-6.16-2.15-14.09-11.77-31.94-18.25-50.27-18.25-13.32,0-26.51,3.43-38.15,9.92-16.37,9.13-28.95,23.84-35.41,41.44-6.46,17.6-6.4,36.96,.18,54.51l.85,2.27,40.97,88.5c1.29,2.79,.32,5.04-.38,6.13-1.2,1.88-3.27,3.05-5.39,3.05-.71,0-1.44-.12-2.17-.37l-5.56-1.89c-13.42-4.58-28.62-9.76-42.88-14.42-8.27-2.71-16.73-4.08-25.14-4.08-11.64,0-23.45,2.88-36.09,8.8-8.56,4.01-17.42,7.97-26,11.81-6.42,2.87-12.49,5.58-18.19,8.21-16.73,7.69-29.04,23.5-33.8,43.36-4.41,18.41-.8,37.39,10.14,53.46,2.87,4.21,5.72,7.47,8.17,10.2,5.2,5.8,161.43,168.03,168.08,174.93l.1,.1,.1,.1c41.17,38.68,93.27,59.12,150.68,59.12,45.99,0,95.25-13.04,146.37-38.75l50.88-25.39c1.04-.52,2.12-.78,3.21-.78,2.05,0,4.02,.91,5.42,2.49,.96,1.08,2.03,2.94,1.7,5.6-2.6,21.02-5.23,41.95-7.82,62.55-2.53,20.14-5.06,40.28-7.54,60.28-.04,.3-.09,.61-.14,.92l-.07,.42c-.87,5.43-2.49,15.54-.98,27.72,2.54,20.44,12.92,38.65,29.23,51.3,13.63,10.57,29.82,16.16,46.81,16.17h0c18.23,0,31.97-6.52,38.58-9.65,0,0,.91-.43,1.06-.5,7.02-3.03,14.04-6.11,20.83-9.09l.39-.17c13.41-5.89,26.07-11.45,38.89-16.72,9.44-3.88,34.47-14.18,51.81-38.76,13.33-14.69,20.21-30.05,24.73-41.81,21.14-55.09,43.32-112.55,62.89-163.25,10.14-26.26,20.28-52.52,30.4-78.79l.1-.22c12.76-27,34.25-48.77,60.52-61.31l25.9-12.37c7.19-3.4,176.25-83.41,198.32-96.17,39.19-22.68,67.87-52.88,85.26-89.78,13.16-27.89,15.73-57.17,7.43-84.68Z"/><path class="cls-2" d="M1247.88,337.89c-7.83-25.96-25.15-47.79-50.08-63.12-13.26-8.15-27.82-14.24-45.78-19.14-23.26-6.37-47.49-9.46-74.08-9.46-9.66,0-19.83,.43-30.25,1.27-1.47,.12-2.91,.26-4.36,.4-.97-4.06-2.28-8.07-3.97-11.99-11.41-26.41-37.37-43.47-66.14-43.47-3.14,0-6.25,.2-9.32,.6l-66.14-142.87c-11.28-26.72-37.8-44.45-66.99-44.45-8.63,0-17.12,1.52-25.24,4.52-37.6,13.92-56.86,55.83-42.96,93.39,.95,2.58,2.06,5.13,3.31,7.59l4.7,10.15c2.47,5.34-.25,11.65-5.84,13.5-4.72,1.56-9.37,3.37-13.95,5.44l-1.79,.82c-14.79,6.83-28.29,16.37-39.71,27.96-4.83,4.9-11.5,7.44-18.38,7.16-.73-.03-1.46-.05-2.19-.06h-.75c-10.31,0-20.71,2.28-30.08,6.6l-.25,.12c-15.26,7.13-27.3,19.43-34.38,34.21-5.19,10.84-17.28,16.59-28.9,13.51-6.03-1.6-12.28-2.43-18.58-2.43-10.49,0-20.64,2.21-30.18,6.56l-.3,.14c-6.19,2.87-85.33,35.82-99.33,42.25l-.17,.08c-16.58,7.68-31.04,17.97-43.07,30.54-2.99,3.12-7.16,4.82-11.48,4.82h-.01c-9.23,0-18.37,1.69-26.99,4.99l-1.85,.71-4.49,2.08-.64,.32c-12.87,6.35-24.5,14.53-34.72,24.42-5.17,5.01-12.62,6.82-19.6,5.05-5.64-1.43-11.5-2.18-17.47-2.18-.02,0-.04,0-.06,0-3.58,0-7.06-1.17-9.8-3.47-12.88-10.76-29.32-16.93-46.64-16.93-12.35,0-24.59,3.18-35.39,9.21-15.19,8.47-26.85,22.12-32.85,38.44-5.99,16.32-5.93,34.28,.17,50.57l.77,2.07,40.88,88.31c4.48,9.67-4.82,20-14.91,16.56-1.86-.63-3.71-1.26-5.56-1.9-14.14-4.82-28.77-9.81-42.81-14.4-7.7-2.52-15.57-3.8-23.38-3.8-11.65,0-22.8,3.17-33.69,8.27-14.96,7.01-30.86,13.88-44.23,20.03-16.27,7.49-26.61,22.62-30.65,39.53-4.03,16.84-.72,34.22,9.32,48.94,2.68,3.93,5.4,7.04,7.7,9.61,5.2,5.79,167.94,174.79,167.94,174.79,40.1,37.67,90.86,57.59,146.8,57.59,45.1,0,93.49-12.84,143.84-38.15l50.89-25.39c9.17-4.58,19.75,2.9,18.49,13.08-2.6,21.02-5.23,41.95-7.82,62.56-2.53,20.14-5.06,40.27-7.55,60.34-.07,.48-.15,.97-.23,1.46-.83,5.15-2.36,14.75-.95,26.12,2.36,18.93,11.97,35.81,27.07,47.52,12.63,9.8,27.61,14.98,43.34,14.98h0c16.95,0,29.92-6.15,36.15-9.1,.44-.21,.88-.42,1.25-.59,7.09-3.06,14.18-6.18,21.05-9.19,13.49-5.92,26.23-11.52,39.15-16.83,9.52-3.92,33.14-13.63,49.53-37.07,12.69-13.89,19.38-28.59,23.87-40.29,20.89-54.43,42.24-109.76,62.9-163.26,10.16-26.33,20.33-52.66,30.48-78.99,.06-.13,.13-.26,.19-.39,13.21-27.94,35.32-50.69,63.2-64.01l25.92-12.38s175.79-83.16,197.9-95.96c38.17-22.09,66.09-51.46,82.97-87.29,12.55-26.6,15.02-54.48,7.13-80.63Z"/><path class="cls-1" d="M1167.03,324.82c-9.5-5.84-19.84-9.61-30.52-12.52-27.59-7.55-55.77-8.59-84.05-6.3-24.3,1.98-48.06,6.85-70.34,17.31-16.97,7.97-33.88,16.1-50.79,24.19-92.97,44.49-185.92,88.98-278.88,133.48-81.7,39.12-228.62,109.87-294.04,141.4-21.19,10.21-41.97,10.22-97.61-4.91-46.22-12.56-95.13-30.66-139.78-45.25-4.34-1.42-7.99-1.14-11.99,.91-12.57,6.45-25.39,12.37-38.58,17.47-7.52,2.91-7.63,3.27-2.35,9.15,16.8,18.73,33.44,37.59,50.41,56.16,28.72,31.43,58.26,62.05,88.99,91.5h-.01s1.68,1.58,1.68,1.58c5.95,5.68,11.94,11.31,17.98,16.9l5.37,5.05c50.99,47.9,126.47,58.85,224.1,9.72l172.39-86.03h0c6.61-3.13,13.21-6.26,19.79-9.45l.46-.22,248.78-118.79,.03-.02c.42-.26,.88-.5,1.36-.73,11.24-5.35,22.49-10.68,33.73-16.03l1.25-.59,13.95-6.66v.03c30.33-14.42,60.63-28.89,90.85-43.53,29.78-14.43,60.46-27.11,89.13-43.7,25.48-14.74,46.47-34.36,59.27-61.51,12.76-27.03,4.82-53.01-20.6-68.64Z"/><g><path class="cls-1" d="M835,191.09c-9.64-3.57-19.91-5.13-30.18-4.58-10.32,.57-20.44,3.04-29.85,7.29l-1.31,.61c-11.2,5.17-20.98,12.97-28.51,22.74-7.95,10.12-13.41,21.97-15.93,34.59-1.71,9.99-1.62,20.21,.26,30.17,1.87,10.02,5.73,19.56,11.35,28.06l.05,.11c.64,1.09,1.34,2.18,2.08,3.24s1.54,2.17,2.25,3.13c8.39,10.76,19.44,19.16,32.06,24.35,12.65,5.3,26.43,7.29,40.06,5.79,6.92-.76,13.71-2.47,20.17-5.07,6.38-2.56,12.4-5.94,17.92-10.04,5.57-4.16,10.61-8.98,15.03-14.35,4.44-5.4,8.15-11.36,11.02-17.74l.18-.34c.37-.62,.68-1.28,.92-1.96l1.03-2.8c1.25-3.18,1.11-6.74-.38-9.81-2.88-6.47-10.46-9.39-16.93-6.51-3.22,1.43-5.71,4.13-6.88,7.45l-.4,1.07c-2.63,6.36-6.36,12.21-11.01,17.27-4.19,4.5-9.12,8.23-14.59,11.03l-2.09,1.09c-3.77,1.99-6.04,3.19-11.37,4-1.79,.29-3.68,.53-5.64,.76-2.48,.36-4.98,.51-7.49,.45l-4.22-.13,41.21-112.26c1.11-3.36,.91-7.01-.57-10.23-1.37-3.27-4.03-5.83-7.34-7.09l-.88-.3Zm-57.96,118.03l-2.38-2.03c-4.24-3.63-7.92-7.88-10.92-12.6-7.33-11.33-9.91-25.1-7.16-38.32,1.37-7.07,4.26-13.75,8.47-19.58,4.21-5.9,9.55-10.91,15.72-14.72,6.11-3.8,12.95-6.26,20.08-7.22,2.64-.37,5.31-.56,7.97-.58h3.12s-34.9,95.05-34.9,95.05Z"/><path class="cls-1" d="M345.95,539.14l-1.58,.73c-9.17,4.24-15.84,3.32-24.24,.29-8.89-3.19-15.3-9.26-19.65-18.66l-35.98-77.72,26.46-12.25c6.53-3.02,9.37-10.77,6.35-17.29s-10.77-9.37-17.29-6.35h0l-26.47,12.25-12.36-26.69c-3.75-6.73-12.26-9.15-18.99-5.4-6.03,3.36-8.7,10.63-6.28,17.09l59.28,128.05c7.51,16.22,19.4,27.18,35.35,32.57,16.66,5.64,30,5.16,44.63-1.61l1.94-.9c6.74-2.91,9.84-10.74,6.93-17.48-2.91-6.74-10.74-9.84-17.48-6.93-.21,.09-.41,.19-.62,.29h0Z"/><path class="cls-1" d="M534.26,304.72c-6.97,3.25-10,11.53-6.76,18.52l1.29,2.78c-4.74-1.38-9.61-2.29-14.53-2.74-14.97-1.55-30.09,.94-43.77,7.22-20.64,9.55-35.14,25.27-43.09,46.72-7.96,21.44-7.2,42.75,2.27,63.21,9.47,20.45,25.19,34.82,46.72,42.63,21.53,7.81,42.86,6.92,63.5-2.64,13.43-6.19,24.92-15.9,33.26-28.11,3.01-4.35,5.58-8.98,7.66-13.84l1.48,3.21c3.75,6.73,12.26,9.15,18.99,5.4,6.03-3.36,8.7-10.63,6.28-17.09l-54.84-118.47c-3.24-6.95-11.49-9.98-18.46-6.79Zm21.29,77.56c6.43,13.89,7.03,27.8,1.84,42.51-5.2,14.71-14.4,24.85-28.21,31.24-13.81,6.39-27.79,6.89-42.6,1.45-14.81-5.44-25.11-14.78-31.48-28.53-6.37-13.75-6.87-27.79-1.48-42.81,5.38-15.02,14.64-25.34,28.37-31.7,13.73-6.36,27.5-6.73,42.14-1.15,14.64,5.58,24.99,15.1,31.42,28.99Z"/><path class="cls-1" d="M682.53,236.08c-4.53,2.12-7.46,6.63-7.55,11.64l-1.46,115.52-88.89-73.19c-4.12-3.36-9.79-4.09-14.62-1.88-6.95,3.22-9.97,11.46-6.75,18.41,.87,1.88,2.16,3.55,3.76,4.87l112.53,92.9c3.57,2.98,8.54,3.62,12.74,1.64h0c4.23-1.93,6.95-6.14,6.99-10.79l1.73-147.15c.08-7.19-5.69-13.08-12.88-13.15-1.93-.02-3.84,.39-5.6,1.2Z"/><path class="cls-1" d="M967.34,252.51l-2.16,1c-8.82,4.08-17.45,4.5-26.38,1.29s-15.33-9.34-19.65-18.66l-75.28-162.62c-2.68-7.23-10.71-10.92-17.94-8.25-7.23,2.68-10.92,10.71-8.25,17.94,.26,.69,.57,1.36,.93,2l75.28,162.62c7.51,16.22,19.4,27.17,35.33,32.56,15.77,5.34,31.63,4.41,47.12-2.77l2.16-1c6.74-2.91,9.84-10.74,6.93-17.48-2.91-6.74-10.74-9.84-17.48-6.93-.21,.09-.41,.19-.62,.29h0Z"/><path class="cls-1" d="M397.02,372.36c-3.78-1.42-7.94-1.41-11.71,.04l-2.04,.95c-9.46,4.67-17.89,11.18-24.78,19.16-6.67,7.69-11.82,16.58-15.18,26.19-3.32,9.63-4.84,19.78-4.48,29.96,.37,10.61,2.91,21.03,7.44,30.62l27.34,59.06c3.51,7.74,12.62,11.18,20.37,7.68,.08-.04,.16-.07,.24-.11,3.81-1.69,6.78-4.84,8.23-8.75,1.54-3.87,1.38-8.2-.43-11.94l-27.34-59.06c-5.42-11.52-6.13-24.71-1.97-36.74,4.18-11.96,12.74-21.9,23.96-27.79l1.13-.52c7.89-3.67,11.33-13.03,7.69-20.94-1.63-3.66-4.69-6.48-8.47-7.8Z"/></g><path class="cls-2" d="M948.37,542.16v.03c-4.65,2.21-9.29,4.42-13.95,6.63l13.95-6.66Z"/><g><g><path class="cls-3" d="M421.9,685.69c-2.1-4.55-4.74-8.43-7.83-11.54-2.92-3.02-6.39-5.39-10.32-7.06-3.72-1.56-7.69-2.28-11.81-2.2-8.51,.35-16.71,4.14-22.53,10.41-2.73,3.05-4.74,6.55-5.98,10.4-1.28,4.06-1.72,8.24-1.32,12.4,.36,4.38,1.61,8.91,3.71,13.46,2.1,4.55,4.74,8.44,7.82,11.54,2.91,3.01,6.38,5.37,10.31,7.01,3.5,1.43,7.2,2.15,11.04,2.15,.24,0,.49,0,.73,0,8.51-.36,16.71-4.15,22.52-10.41,2.72-3.04,4.73-6.51,6-10.34,1.3-4.04,1.75-8.21,1.35-12.36-.36-4.38-1.61-8.9-3.71-13.46Zm-8,22.91c-1.38,5.28-4.69,9.06-10.11,11.56-5.42,2.5-10.44,2.56-15.36,.19-4.95-2.39-9.01-6.98-12.09-13.64-3.07-6.66-3.93-12.75-2.56-18.11,1.36-5.31,4.66-9.11,10.08-11.61,2.76-1.27,5.41-1.91,8.01-1.91s4.94,.59,7.36,1.77c4.97,2.43,9.04,7.03,12.12,13.69l.35,.73c2.79,6.37,3.53,12.19,2.19,17.31Z"/><path class="cls-3" d="M472.98,644.91c-2.16-2.85-4.87-5.15-8.08-6.87-3.15-1.6-6.71-2.33-10.29-2.14-3.72,.15-7.95,1.3-12.55,3.43-5.41,2.49-9.89,5.01-13.31,7.49-3.36,2.43-6.05,4.48-7.99,6.08l-.89,.74,26.11,56.54,10.07-4.65-22.89-49.59c.64-.5,1.69-1.25,3.43-2.37,2.73-1.72,5.6-3.26,8.56-4.59,3.07-1.42,5.8-2.24,8.13-2.46,2.13-.22,4.22,.19,6.06,1.17,1.9,1.02,3.72,2.7,5.42,5,1.77,2.4,3.57,5.57,5.35,9.44l14.05,30.43,10.07-4.65-15.09-32.7c-1.65-3.65-3.72-7.12-6.16-10.29Z"/><path class="cls-3" d="M544.68,650.77l-1.21,1.37c-1.26,1.43-2.64,2.79-4.12,4.07-1.88,1.69-4.77,3.45-8.61,5.22-6.8,3.13-12.57,3.72-17.15,1.75-4.32-1.86-8.06-5.66-11.15-11.31l40.73-18.8-.36-1.24c-.19-.64-.39-1.24-.62-1.83-.24-.62-.5-1.24-.78-1.84-4.45-9.64-10.09-15.88-16.75-18.54-6.69-2.67-13.9-2.26-21.41,1.2-3.42,1.58-6.47,3.76-9.06,6.48-2.66,2.8-4.71,6.18-5.92,9.77-1.31,3.72-1.85,7.9-1.62,12.4,.24,4.5,1.54,9.34,3.88,14.41,1.85,4.12,4.29,7.96,7.25,11.39,2.67,3.12,6.09,5.65,9.91,7.33,3.33,1.41,6.98,2.14,10.63,2.14,.58,0,1.16-.02,1.74-.06,4.46-.23,9.4-1.59,14.68-4.02,4.02-1.86,7.38-3.92,10.01-6.13,2.65-2.23,4.36-3.89,5.22-5.06l.67-.91-5.95-7.8Zm-15.44-21.81l-30.54,14.1c-.6-1.88-.96-3.82-1.09-5.81-.17-2.37,.11-4.73,.82-7.03,.69-2.21,1.8-4.26,3.28-6.06,1.56-1.87,3.57-3.38,5.84-4.38,2.47-1.14,4.79-1.71,7.01-1.71,1.9,0,3.73,.42,5.49,1.26,3.55,1.69,6.64,4.92,9.2,9.63Z"/></g><g><rect class="cls-3" x="581.21" y="577.14" width="11.09" height="64.78" transform="translate(-201.42 301.98) rotate(-24.77)"/><path class="cls-3" d="M645.97,565.07c-2.16-2.85-4.86-5.16-8.08-6.88-3.15-1.6-6.72-2.33-10.29-2.14-3.73,.15-7.95,1.3-12.55,3.43-5.41,2.49-9.89,5.01-13.31,7.49-3.36,2.43-6.05,4.48-7.99,6.08l-.89,.74,26.11,56.54,10.07-4.65-22.89-49.59c.62-.48,1.67-1.23,3.43-2.37,2.73-1.72,5.6-3.26,8.56-4.59,3.07-1.42,5.8-2.25,8.13-2.46,2.13-.22,4.23,.19,6.07,1.17,1.9,1.02,3.72,2.7,5.42,4.99,1.77,2.4,3.57,5.57,5.35,9.44l14.05,30.43,10.07-4.65-15.09-32.7c-1.65-3.65-3.72-7.12-6.16-10.29Z"/><path class="cls-3" d="M701.75,559.23c-.34-5.63-.84-11.4-1.47-17.14-.64-5.76-1.47-11.61-2.48-17.38l-.33-1.92-10.2,4.71,.24,1.16c.85,4.18,1.63,8.81,2.32,13.75,.69,4.93,1.26,9.96,1.69,14.93,.43,4.98,.74,9.9,.93,14.63,.14,3.5,.19,6.78,.14,9.79-2.31-1.92-4.78-4.09-7.36-6.46-3.49-3.22-7.03-6.65-10.52-10.2-3.5-3.55-6.95-7.24-10.26-10.97-3.3-3.72-6.32-7.32-8.97-10.7l-.73-.93-10.66,4.92,1.24,1.5c3.74,4.52,7.65,8.94,11.62,13.16s8.04,8.34,12.1,12.26c4.07,3.92,8.16,7.68,12.16,11.18,3.99,3.49,7.93,6.79,11.72,9.79l.72,.57,8.54-3.94,.02-.94c.09-4.76,.13-9.88,.1-15.22-.03-5.33-.22-10.89-.56-16.54Z"/><path class="cls-3" d="M765.84,549.5c-1.26,1.43-2.64,2.79-4.11,4.07-1.88,1.69-4.78,3.45-8.62,5.22-6.8,3.13-12.57,3.72-17.15,1.75-4.32-1.86-8.07-5.66-11.15-11.31l40.73-18.8-.36-1.24c-.17-.58-.38-1.19-.62-1.82-.24-.63-.5-1.25-.78-1.85-4.45-9.64-10.08-15.88-16.75-18.54-6.69-2.67-13.9-2.26-21.41,1.2-3.42,1.58-6.47,3.76-9.06,6.48-2.66,2.8-4.71,6.18-5.92,9.77-1.31,3.72-1.85,7.9-1.62,12.4,.24,4.5,1.54,9.34,3.88,14.41,1.85,4.12,4.29,7.95,7.24,11.39,2.67,3.12,6.09,5.65,9.92,7.34,3.33,1.41,6.98,2.14,10.63,2.14,.58,0,1.16-.02,1.74-.06,4.46-.23,9.4-1.59,14.68-4.02,4.01-1.86,7.38-3.92,10.01-6.13,2.65-2.23,4.35-3.88,5.22-5.05l.67-.91-5.95-7.8-1.21,1.37Zm-14.23-23.18l-30.53,14.09c-.6-1.88-.96-3.82-1.09-5.81-.17-2.36,.11-4.73,.82-7.03,.69-2.21,1.79-4.25,3.26-6.05,1.56-1.87,3.57-3.38,5.84-4.38,2.47-1.14,4.79-1.71,7-1.71,1.9,0,3.73,.42,5.5,1.26,3.55,1.69,6.64,4.92,9.19,9.63Z"/><path class="cls-3" d="M815.43,486.86c-2.16-2.85-4.87-5.16-8.08-6.87-3.15-1.6-6.71-2.34-10.29-2.14-3.73,.15-7.95,1.31-12.55,3.43-5.41,2.49-9.89,5.01-13.31,7.49-3.37,2.44-6.06,4.48-7.99,6.08l-.89,.74,26.11,56.54,10.07-4.65-22.89-49.59c.64-.5,1.69-1.24,3.43-2.37,2.73-1.72,5.61-3.26,8.56-4.59,3.07-1.42,5.8-2.25,8.13-2.46,2.13-.22,4.23,.19,6.07,1.17,1.9,1.02,3.72,2.7,5.42,5,1.77,2.4,3.57,5.57,5.35,9.44l14.05,30.43,10.07-4.65-15.09-32.7c-1.65-3.65-3.72-7.12-6.16-10.29Z"/><path class="cls-3" d="M877.44,497.14l-1.1,1.42c-1.02,1.33-2.16,2.59-3.4,3.79-1.43,1.43-3.64,2.83-6.56,4.18-1.56,.74-3.21,1.29-4.89,1.64-1.36,.28-2.73,.17-4-.33-1.31-.5-2.64-1.53-3.96-3.06-1.39-1.62-2.8-3.98-4.2-7.02l-13.14-28.47,23.28-10.74-4.01-8.69-23.28,10.74-8.33-18.05-9.25,6.43,24.34,52.75c1.5,3.39,3.38,6.63,5.59,9.65,2.01,2.64,4.3,4.62,6.82,5.9,2.18,1.08,4.6,1.63,7.04,1.63,.51,0,1.01-.02,1.52-.07,3.03-.24,6.47-1.24,10.22-2.97,3.07-1.39,5.9-3.22,8.41-5.47,2.36-2.15,3.92-3.81,4.75-5.06l.64-.97-6.49-7.23Z"/></g><path class="cls-3" d="M932.79,465.07c-.36-4.38-1.61-8.91-3.71-13.46-2.1-4.55-4.74-8.44-7.83-11.54-2.92-3.02-6.39-5.39-10.32-7.06-3.72-1.55-7.67-2.29-11.81-2.2-8.51,.35-16.71,4.14-22.52,10.41-2.72,3.05-4.73,6.55-5.97,10.4-1.27,4.06-1.72,8.24-1.32,12.4,.36,4.38,1.61,8.91,3.71,13.46,2.1,4.55,4.74,8.44,7.82,11.54,2.91,3.01,6.38,5.37,10.31,7.02,3.5,1.42,7.2,2.14,11.03,2.14,.25,0,.5,0,.75,0,8.51-.36,16.71-4.14,22.52-10.41,2.72-3.04,4.73-6.51,6-10.34,1.3-4.04,1.75-8.21,1.35-12.36Zm-11.69,9.44c-1.38,5.28-4.69,9.06-10.11,11.56-5.42,2.5-10.44,2.57-15.36,.19-4.94-2.39-9.01-6.98-12.08-13.64-3.08-6.66-3.94-12.75-2.56-18.1,1.37-5.31,4.66-9.11,10.08-11.61,2.76-1.28,5.42-1.91,8.02-1.91s4.94,.59,7.36,1.77c4.97,2.43,9.04,7.04,12.12,13.69,3.07,6.66,3.93,12.73,2.54,18.05Z"/><path class="cls-3" d="M940.34,421.89c.46-.42,1.2-1.04,2.4-1.96,1.63-1.25,4-2.59,7.06-4.01,2.34-1.13,4.79-2.07,7.25-2.78,2.43-.64,3.32-.74,3.69-.72l1.85,.03-1.93-9.81-1.26,.03c-1.13,.02-2.87,.36-5.33,1.03-2.5,.69-4.96,1.6-7.32,2.7-4.8,2.22-8.77,4.58-11.8,7.01-3,2.4-5.31,4.49-6.86,6.21l-.67,.73,25.73,55.75,10.07-4.65-22.87-49.56Z"/><path class="cls-3" d="M1024.07,444.48c-.23-10.68-1.09-21.44-2.54-31.99-1.51-11.31-3.49-22.93-5.88-34.54l-.38-1.85-10.17,4.69,.25,1.17c1.14,5.27,2.15,10.25,3.02,14.81,.87,4.57,1.67,9.11,2.37,13.52,.72,4.41,1.35,8.94,1.87,13.46,.41,3.55,.79,7.34,1.12,11.3-3.34-2.61-6.61-5.34-9.75-8.14-3.99-3.56-7.82-7.12-11.37-10.61-3.55-3.49-6.93-6.97-10.02-10.36-3.09-3.39-5.88-6.65-8.27-9.69l-.73-.93-10.64,4.91,1.21,1.5c3.37,4.16,7.07,8.36,11,12.49,3.92,4.12,8.07,8.21,12.33,12.17,4.26,3.94,8.71,7.82,13.22,11.54,4.32,3.56,8.69,6.96,13,10.14,.11,2.24,.02,4.51-.27,6.74-.25,1.84-.81,3.62-1.65,5.28-.78,1.49-1.84,2.79-3.16,3.86-1.56,1.24-3.28,2.28-5.12,3.11-1.36,.63-2.79,1.07-4.25,1.3-1.97,.31-2.44,.26-2.48,.26l-2.15-.39,1.85,9.8,1.13,.1c.09,0,.2,.01,.35,.01,.51,0,1.42-.07,3.38-.39,2.03-.35,4-.97,5.84-1.85,3.44-1.59,6.31-3.38,8.53-5.32,2.23-1.92,4-4.22,5.29-6.85,1.28-2.73,2.12-5.62,2.5-8.58,.46-3.53,.65-7.12,.55-10.66Z"/></g><path class="cls-1" d="M707.05,924.37c7.73-7.15,11.81-15.56,15.29-24.63,31.3-81.55,62.83-163.02,94.25-244.52,.82-2.13,3.02-4.66,1.25-6.64-1.99-2.23-4.38,.25-6.39,1.19-59.11,27.42-118.1,55.09-177.37,82.15-9.14,4.17-12.99,9.37-14.18,19.47-7.82,66.62-16.41,133.14-24.66,199.7-.92,7.43-3.74,15.68,3.61,21.38,7.44,5.77,14.54,.75,21.45-2.23,20.38-8.8,40.61-17.97,61.13-26.41,10.64-4.38,20.29-9.53,25.61-19.45Z"/></g></svg>